<?xml version="1.0" standalone="no"?>
<!DOCTYPE svg PUBLIC "-//W3C//DTD SVG 20010904//EN"
 "http://www.w3.org/TR/2001/REC-SVG-20010904/DTD/svg10.dtd">
<svg version="1.0" xmlns="http://www.w3.org/2000/svg"
 width="971.000000pt" height="971.000000pt" viewBox="0 0 971.000000 971.000000"
 preserveAspectRatio="xMidYMid meet">
<metadata>
Created by potrace 1.11, written by Peter Selinger 2001-2013
</metadata>
<g transform="translate(0.000000,971.000000) scale(0.100000,-0.100000)"
fill="#000000" stroke="none">
<path d="M2141 7869 l-31 -31 0 -401 0 -402 -198 -198 -197 -197 -724 0 -723
0 -34 -34 -34 -34 0 -462 0 -462 31 -29 31 -29 782 0 c859 0 808 -4 841 60 13
24 15 97 15 457 l0 428 158 158 157 157 715 0 715 0 188 -188 187 -187 0 -370
0 -370 -178 -178 -177 -177 -733 0 c-631 0 -737 -2 -762 -15 -62 -32 -60 -15
-60 -518 l0 -459 28 -28 c19 -19 43 -30 73 -35 24 -3 378 -5 786 -3 l743 3 32
33 33 32 3 418 2 417 183 183 182 182 735 0 c808 0 762 -3 795 60 23 44 22
887 0 930 -32 62 -2 60 -812 60 l-738 0 -173 173 -172 172 0 413 c0 347 -2
418 -15 442 -33 64 18 60 -841 60 l-782 0 -31 -31z"/>
<path d="M4071 7886 c-50 -28 -50 -29 -51 -514 l0 -454 34 -34 34 -34 771 0
c847 0 814 -2 846 60 22 43 23 886 0 930 -33 64 17 60 -835 60 -624 -1 -780
-3 -799 -14z m1601 -25 l33 -29 0 -449 c0 -416 -1 -451 -18 -476 -10 -16 -29
-32 -43 -37 -15 -6 -325 -10 -780 -10 -820 0 -796 -2 -822 55 -18 38 -17 890
1 925 26 51 9 50 829 50 l768 0 32 -29z"/>
<path d="M7923 7893 c-12 -2 -33 -16 -47 -30 l-26 -26 0 -459 0 -460 29 -29
29 -29 782 0 782 0 29 29 29 29 0 455 c0 443 -1 455 -20 480 -12 15 -38 31
-58 37 -36 10 -1479 13 -1529 3z"/>
<path d="M2144 6606 l-34 -34 0 -458 c0 -500 -1 -483 57 -513 15 -8 245 -11
795 -11 850 0 800 -4 833 60 22 42 22 873 1 925 -29 68 9 65 -847 65 l-771 0
-34 -34z m1622 -9 l24 -28 0 -459 0 -458 -31 -26 -31 -26 -780 2 -780 3 -24
28 -24 28 0 447 c1 478 1 480 51 508 20 11 168 13 797 11 l774 -2 24 -28z"/>
<path d="M5964 6606 l-34 -34 0 -451 c0 -328 3 -457 12 -476 26 -57 1 -55 842
-55 l776 0 32 29 33 29 3 451 c2 391 1 455 -13 481 -32 62 2 60 -846 60 l-771
0 -34 -34z m1618 -5 l33 -29 3 -443 c2 -321 -1 -451 -9 -472 -25 -60 18 -57
-832 -57 l-779 0 -29 29 -29 29 0 454 c0 490 0 486 54 508 11 5 366 9 788 9
l768 1 32 -29z"/>
<path d="M7874 6606 l-34 -34 0 -451 c0 -328 3 -457 12 -476 26 -57 1 -55 842
-55 l776 0 32 29 33 29 3 451 c2 391 1 455 -13 481 -32 62 2 60 -846 60 l-771
0 -34 -34z"/>
<path d="M253 5360 c-17 -10 -37 -28 -42 -39 -7 -13 -11 -172 -11 -474 0 -443
1 -455 20 -480 12 -15 38 -31 58 -37 24 -6 300 -10 775 -10 789 0 777 -1 822
50 19 21 20 38 23 466 2 392 1 449 -13 479 -33 68 1 65 -842 65 -733 0 -759
-1 -790 -20z"/>
<path d="M4073 5360 c-17 -10 -37 -28 -42 -39 -7 -13 -11 -173 -11 -476 l0
-457 28 -28 c19 -19 43 -30 73 -35 24 -3 378 -5 786 -3 l743 3 32 33 33 32 3
446 c2 392 1 449 -13 479 -33 68 1 65 -842 65 -733 0 -759 -1 -790 -20z m1604
-23 l28 -27 3 -448 c2 -430 1 -448 -17 -479 -14 -22 -32 -35 -60 -43 -28 -7
-275 -10 -788 -8 -807 3 -778 1 -802 55 -7 16 -11 174 -11 471 0 490 -1 477
60 501 16 6 304 9 792 8 l768 -2 27 -28z"/>
<path d="M5983 5360 c-17 -10 -37 -28 -42 -39 -7 -13 -11 -157 -11 -423 l0
-403 -188 -188 -187 -187 -705 0 c-395 0 -723 -5 -745 -10 -22 -5 -50 -21 -62
-35 l-23 -26 0 -459 0 -460 29 -32 29 -33 764 -3 763 -2 163 -163 162 -162 0
-433 0 -434 34 -34 34 -34 770 0 c477 0 780 4 796 10 14 5 35 24 46 42 19 32
20 51 20 453 l0 420 168 168 167 167 743 0 c816 0 785 -2 817 60 14 26 15 90
13 481 l-3 451 -32 28 c-20 18 -48 31 -75 35 -24 3 -374 5 -778 3 -574 -2
-740 -6 -757 -16 -52 -29 -53 -40 -53 -474 l0 -403 -188 -188 -187 -187 -680
0 -680 0 -192 192 -193 193 0 380 0 380 163 162 162 163 757 2 758 3 32 33 33
32 3 445 c2 376 0 450 -12 480 -28 67 1 65 -843 65 -733 0 -759 -1 -790 -20z"/>
<path d="M7893 5360 c-17 -10 -37 -28 -42 -39 -7 -13 -11 -170 -11 -468 0
-427 1 -450 20 -480 13 -22 31 -35 59 -43 27 -7 279 -10 793 -8 827 3 782 0
813 64 23 49 22 891 -1 935 -31 60 -11 59 -841 59 -733 0 -759 -1 -790 -20z
m1577 -8 c19 -9 40 -28 47 -42 10 -19 13 -132 13 -458 0 -462 -1 -476 -49
-502 -13 -7 -283 -10 -796 -10 l-777 0 -29 29 -29 29 0 450 0 450 25 31 c14
16 36 32 48 34 12 2 357 5 767 6 691 1 748 0 780 -17z"/>
<path d="M280 4110 c-19 -5 -45 -20 -57 -35 l-23 -26 0 -459 0 -460 29 -32 29
-33 744 -3 744 -2 182 -183 182 -183 0 -407 c0 -271 4 -414 11 -430 6 -13 23
-31 39 -40 26 -15 97 -17 793 -17 473 0 775 4 791 10 14 5 35 24 46 42 19 32
20 51 20 471 0 369 -2 443 -15 467 -33 63 14 60 -805 60 l-745 0 -172 173
-173 172 -2 427 -3 426 -24 26 c-14 14 -41 30 -60 36 -44 12 -1479 12 -1531 0z"/>
<path d="M2190 4110 c-19 -5 -45 -20 -57 -35 l-23 -26 0 -459 0 -460 29 -32
29 -33 771 -3 c860 -3 828 -5 857 63 12 30 14 104 12 480 l-3 443 -24 26 c-14
14 -41 30 -60 36 -44 12 -1479 12 -1531 0z m1575 -34 c13 -13 26 -39 30 -57 3
-19 5 -226 3 -461 l-3 -428 -28 -27 -27 -28 -768 -3 c-563 -2 -774 1 -795 9
-58 24 -57 13 -57 505 l0 452 26 31 26 31 784 0 785 0 24 -24z"/>
<path d="M6010 4110 c-19 -5 -45 -21 -57 -37 l-23 -28 0 -455 c0 -499 -2 -483
60 -515 44 -23 1536 -23 1580 0 61 32 61 30 58 524 l-3 449 -24 26 c-14 14
-41 30 -60 36 -44 12 -1479 12 -1531 0z m1566 -25 c43 -30 45 -49 42 -513 l-3
-442 -28 -27 -27 -28 -763 -3 c-419 -1 -773 0 -785 3 -13 3 -35 18 -48 32
l-24 26 0 453 0 452 26 31 26 31 782 0 c669 0 785 -2 802 -15z"/>
<path d="M7874 2816 l-34 -34 0 -457 0 -457 34 -34 34 -34 770 0 c477 0 780 4
796 10 14 5 35 24 46 42 20 32 20 47 18 486 l-3 454 -33 29 -32 29 -781 0
-781 0 -34 -34z m1601 12 c54 -25 55 -30 55 -503 0 -476 -1 -480 -57 -504 -21
-8 -232 -11 -801 -9 l-774 3 -24 28 -24 28 0 455 0 456 29 29 29 29 771 0
c576 0 777 -3 796 -12z"/>
</g>
</svg>
